<?xml version="1.0" encoding="utf-8"?>
<svg version="1.1" xmlns:xlink="http://www.w3.org/1999/xlink" width="12px" height="12px" viewBox="258 374  12 12" xmlns="http://www.w3.org/2000/svg">
  <path d="M 264 374  C 267.36 374  270 376.64  270 380  C 270 383.36  267.36 386  264 386  C 260.64 386  258 383.36  258 380  C 258 376.64  260.64 374  264 374  Z " fill-rule="nonzero" fill="#ffffff" stroke="none" fill-opacity="0" />
  <path d="M 264 374.5  C 267.08 374.5  269.5 376.92  269.5 380  C 269.5 383.08  267.08 385.5  264 385.5  C 260.92 385.5  258.5 383.08  258.5 380  C 258.5 376.92  260.92 374.5  264 374.5  Z " stroke-width="1" stroke="#797979" fill="none" />
  <path d="M 264 383  C 262.32 383  261 381.68  261 380  C 261 378.32  262.32 377  264 377  C 265.68 377  267 378.32  267 380  C 267 381.68  265.68 383  264 383  " fill-rule="nonzero" fill="#797979" stroke="none" />
</svg>