<?xml version="1.0" encoding="utf-8"?>
<svg version="1.1" xmlns:xlink="http://www.w3.org/1999/xlink" width="12px" height="12px" viewBox="482 374  12 12" xmlns="http://www.w3.org/2000/svg">
  <path d="M 488 374  C 491.36 374  494 376.64  494 380  C 494 383.36  491.36 386  488 386  C 484.64 386  482 383.36  482 380  C 482 376.64  484.64 374  488 374  Z " fill-rule="nonzero" fill="#ffffff" stroke="none" fill-opacity="0" />
  <path d="M 488 374.5  C 491.08 374.5  493.5 376.92  493.5 380  C 493.5 383.08  491.08 385.5  488 385.5  C 484.92 385.5  482.5 383.08  482.5 380  C 482.5 376.92  484.92 374.5  488 374.5  Z " stroke-width="1" stroke="#797979" fill="none" />
  <path d="M 488 383  C 486.32 383  485 381.68  485 380  C 485 378.32  486.32 377  488 377  C 489.68 377  491 378.32  491 380  C 491 381.68  489.68 383  488 383  " fill-rule="nonzero" fill="#797979" stroke="none" />
</svg>