<?xml version="1.0" encoding="utf-8"?>
<svg version="1.1" xmlns:xlink="http://www.w3.org/1999/xlink" width="12px" height="12px" viewBox="482 538  12 12" xmlns="http://www.w3.org/2000/svg">
  <path d="M 488 538  C 491.36 538  494 540.64  494 544  C 494 547.36  491.36 550  488 550  C 484.64 550  482 547.36  482 544  C 482 540.64  484.64 538  488 538  Z " fill-rule="nonzero" fill="#ffffff" stroke="none" fill-opacity="0" />
  <path d="M 488 538.5  C 491.08 538.5  493.5 540.92  493.5 544  C 493.5 547.08  491.08 549.5  488 549.5  C 484.92 549.5  482.5 547.08  482.5 544  C 482.5 540.92  484.92 538.5  488 538.5  Z " stroke-width="1" stroke="#797979" fill="none" />
  <path d="M 488 547  C 486.32 547  485 545.68  485 544  C 485 542.32  486.32 541  488 541  C 489.68 541  491 542.32  491 544  C 491 545.68  489.68 547  488 547  " fill-rule="nonzero" fill="#797979" stroke="none" />
</svg>