<?xml version="1.0" encoding="utf-8"?>
<svg version="1.1" xmlns:xlink="http://www.w3.org/1999/xlink" width="12px" height="12px" viewBox="258 455  12 12" xmlns="http://www.w3.org/2000/svg">
  <path d="M 264 455  C 267.36 455  270 457.64  270 461  C 270 464.36  267.36 467  264 467  C 260.64 467  258 464.36  258 461  C 258 457.64  260.64 455  264 455  Z " fill-rule="nonzero" fill="#ffffff" stroke="none" fill-opacity="0" />
  <path d="M 264 455.5  C 267.08 455.5  269.5 457.92  269.5 461  C 269.5 464.08  267.08 466.5  264 466.5  C 260.92 466.5  258.5 464.08  258.5 461  C 258.5 457.92  260.92 455.5  264 455.5  Z " stroke-width="1" stroke="#797979" fill="none" />
  <path d="M 264 464  C 262.32 464  261 462.68  261 461  C 261 459.32  262.32 458  264 458  C 265.68 458  267 459.32  267 461  C 267 462.68  265.68 464  264 464  " fill-rule="nonzero" fill="#797979" stroke="none" />
</svg>