<?xml version="1.0" encoding="utf-8"?>
<svg version="1.1" xmlns:xlink="http://www.w3.org/1999/xlink" width="100px" height="60px" xmlns="http://www.w3.org/2000/svg">
  <g transform="matrix(1 0 0 1 -1275 -1990 )">
    <path d="M 1325 1990  C 1353 1990  1375 2003.2  1375 2020  C 1375 2036.8  1353 2050  1325 2050  C 1297 2050  1275 2036.8  1275 2020  C 1275 2003.2  1297 1990  1325 1990  Z " fill-rule="nonzero" fill="#f2f2f2" stroke="none" />
    <path d="M 1325 1990.5  C 1352.72 1990.5  1374.5 2003.48  1374.5 2020  C 1374.5 2036.52  1352.72 2049.5  1325 2049.5  C 1297.28 2049.5  1275.5 2036.52  1275.5 2020  C 1275.5 2003.48  1297.28 1990.5  1325 1990.5  Z " stroke-width="1" stroke="#797979" fill="none" />
  </g>
</svg>