<?xml version="1.0" encoding="utf-8"?>
<svg version="1.1" xmlns:xlink="http://www.w3.org/1999/xlink" width="213px" height="62px" xmlns="http://www.w3.org/2000/svg">
  <g transform="matrix(1 0 0 1 -1011 -187 )">
    <path d="M 1011 234.428082191781  C 1011 234.428082191781  1011 192  1011 192  C 1011 189.238576250846  1013.23857625085 187  1016 187  C 1016 187  1219 187  1219 187  C 1221.76142374915 187  1224 189.238576250846  1224 192  C 1224 192  1224 234.428082191781  1224 234.428082191781  C 1224 237.189505940935  1221.76142374915 239.428082191781  1219 239.428082191781  C 1219 239.428082191781  1077.0375 239.428082191781  1077.0375 239.428082191781  C 1077.0375 239.428082191781  1066.32916666667 248.653253424658  1066.32916666667 248.653253424658  C 1066.32916666667 248.653253424658  1057.0375 239.428082191781  1057.0375 239.428082191781  C 1057.0375 239.428082191781  1016 239.428082191781  1016 239.428082191781  C 1013.23857625085 239.428082191781  1011 237.189505940935  1011 234.428082191781  Z " fill-rule="nonzero" fill="#000000" stroke="none" fill-opacity="0.8" />
  </g>
</svg>