<?xml version="1.0" encoding="utf-8"?>
<svg version="1.1" xmlns:xlink="http://www.w3.org/1999/xlink" width="12px" height="12px" viewBox="260 204  12 12" xmlns="http://www.w3.org/2000/svg">
  <path d="M 266 204  C 269.36 204  272 206.64  272 210  C 272 213.36  269.36 216  266 216  C 262.64 216  260 213.36  260 210  C 260 206.64  262.64 204  266 204  Z " fill-rule="nonzero" fill="#ffffff" stroke="none" fill-opacity="0" />
  <path d="M 266 204.5  C 269.08 204.5  271.5 206.92  271.5 210  C 271.5 213.08  269.08 215.5  266 215.5  C 262.92 215.5  260.5 213.08  260.5 210  C 260.5 206.92  262.92 204.5  266 204.5  Z " stroke-width="1" stroke="#797979" fill="none" />
  <path d="M 266 213  C 264.32 213  263 211.68  263 210  C 263 208.32  264.32 207  266 207  C 267.68 207  269 208.32  269 210  C 269 211.68  267.68 213  266 213  " fill-rule="nonzero" fill="#797979" stroke="none" />
</svg>