<?xml version="1.0" encoding="utf-8"?>
<svg version="1.1" xmlns:xlink="http://www.w3.org/1999/xlink" width="206px" height="36px" xmlns="http://www.w3.org/2000/svg">
  <defs>
    <filter x="7px" y="7px" width="206px" height="36px" filterUnits="userSpaceOnUse" id="filter21">
      <feOffset dx="0" dy="0" in="SourceAlpha" result="shadowOffsetInner" />
      <feGaussianBlur stdDeviation="1.5" in="shadowOffsetInner" result="shadowGaussian" />
      <feComposite in2="shadowGaussian" operator="atop" in="SourceAlpha" result="shadowComposite" />
      <feColorMatrix type="matrix" values="0 0 0 0 1  0 0 0 0 1  0 0 0 0 1  0 0 0 0.8 0  " in="shadowComposite" />
    </filter>
    <g id="widget22">
      <path d="M 10.5 20  A 9.5 9.5 0 0 1 20 10.5 L 200 10.5  A 9.5 9.5 0 0 1 209.5 20 L 209.5 30  A 9.5 9.5 0 0 1 200 39.5 L 20 39.5  A 9.5 9.5 0 0 1 10.5 30 L 10.5 20  Z " fill-rule="nonzero" fill="#ffffff" stroke="none" fill-opacity="0" />
      <path d="M 10.5 20  A 9.5 9.5 0 0 1 20 10.5 L 200 10.5  A 9.5 9.5 0 0 1 209.5 20 L 209.5 30  A 9.5 9.5 0 0 1 200 39.5 L 20 39.5  A 9.5 9.5 0 0 1 10.5 30 L 10.5 20  Z " stroke-width="1" stroke="#ffffff" fill="none" />
    </g>
  </defs>
  <g transform="matrix(1 0 0 1 -7 -7 )">
    <use xlink:href="#widget22" filter="url(#filter21)" />
    <use xlink:href="#widget22" />
  </g>
</svg>