<?xml version="1.0" encoding="utf-8"?>
<svg version="1.1" xmlns:xlink="http://www.w3.org/1999/xlink" width="244px" height="50px" xmlns="http://www.w3.org/2000/svg">
  <g transform="matrix(1 0 0 1 -936 -615 )">
    <path d="M 936 648.964577214005  C 936 648.964577214005  936 620  936 620  C 936 617.238576250846  938.238576250846 615  941 615  C 941 615  1175 615  1175 615  C 1177.76142374915 615  1180 617.238576250846  1180 620  C 1180 620  1180 648.964577214005  1180 648.964577214005  C 1180 651.726000963159  1177.76142374915 653.964577214005  1175 653.964577214005  C 1175 653.964577214005  1011.6485915493 653.964577214005  1011.6485915493 653.964577214005  C 1011.6485915493 653.964577214005  999.351224754344 664.415500384128  999.351224754344 664.415500384128  C 999.351224754344 664.415500384128  988.73779342723 653.964577214005  988.73779342723 653.964577214005  C 988.73779342723 653.964577214005  941 653.964577214005  941 653.964577214005  C 938.238576250846 653.964577214005  936 651.726000963159  936 648.964577214005  Z " fill-rule="nonzero" fill="#000000" stroke="none" fill-opacity="0.8" />
  </g>
</svg>