<?xml version="1.0" encoding="utf-8"?>
<svg version="1.1" xmlns:xlink="http://www.w3.org/1999/xlink" width="320px" height="50px" xmlns="http://www.w3.org/2000/svg">
  <g transform="matrix(1 0 0 1 -337 -270 )">
    <path d="M 637.452059179851 270.5  C 637.452059179851 270.5  640.758847150117 270.758342810177  640.758847150117 270.758342810177  C 640.758847150117 270.758342810177  656.469895860483 295  656.469895860483 295  C 656.469895860483 295  640.758847150117 319.241657189823  640.758847150117 319.241657189823  C 640.758847150117 319.241657189823  637.452059179851 319.5  637.452059179851 319.5  C 637.452059179851 319.5  342 319.5  342 319.5  C 339.48 319.5  337.5 317.52  337.5 315  C 337.5 315  337.5 275  337.5 275  C 337.5 272.48  339.48 270.5  342 270.5  C 342 270.5  637.452059179851 270.5  637.452059179851 270.5  Z " fill-rule="nonzero" fill="#ffffff" stroke="none" />
    <path d="M 637.452059179851 270.5  C 637.452059179851 270.5  640.758847150117 270.758342810177  640.758847150117 270.758342810177  C 640.758847150117 270.758342810177  656.469895860483 295  656.469895860483 295  C 656.469895860483 295  640.758847150117 319.241657189823  640.758847150117 319.241657189823  C 640.758847150117 319.241657189823  637.452059179851 319.5  637.452059179851 319.5  C 637.452059179851 319.5  342 319.5  342 319.5  C 339.48 319.5  337.5 317.52  337.5 315  C 337.5 315  337.5 275  337.5 275  C 337.5 272.48  339.48 270.5  342 270.5  C 342 270.5  637.452059179851 270.5  637.452059179851 270.5  Z " stroke-width="1" stroke="#e4e4e4" fill="none" />
  </g>
</svg>