<?xml version="1.0" encoding="utf-8"?>
<svg version="1.1" xmlns:xlink="http://www.w3.org/1999/xlink" width="318px" height="50px" xmlns="http://www.w3.org/2000/svg">
  <g transform="matrix(1 0 0 1 -40 -270 )">
    <path d="M 338.447836267491 270.5  C 338.447836267491 270.5  341.758679870082 270.760286446745  341.758679870082 270.760286446745  C 341.758679870082 270.760286446745  357.46971968651 295  357.46971968651 295  C 357.46971968651 295  341.758679870082 319.239713553255  341.758679870082 319.239713553255  C 341.758679870082 319.239713553255  338.447836267491 319.5  338.447836267491 319.5  C 338.447836267491 319.5  45 319.5  45 319.5  C 42.48 319.5  40.5 317.52  40.5 315  C 40.5 315  40.5 275  40.5 275  C 40.5 272.48  42.48 270.5  45 270.5  C 45 270.5  338.447836267491 270.5  338.447836267491 270.5  Z " fill-rule="nonzero" fill="#4bc1d0" stroke="none" />
    <path d="M 338.447836267491 270.5  C 338.447836267491 270.5  341.758679870082 270.760286446745  341.758679870082 270.760286446745  C 341.758679870082 270.760286446745  357.46971968651 295  357.46971968651 295  C 357.46971968651 295  341.758679870082 319.239713553255  341.758679870082 319.239713553255  C 341.758679870082 319.239713553255  338.447836267491 319.5  338.447836267491 319.5  C 338.447836267491 319.5  45 319.5  45 319.5  C 42.48 319.5  40.5 317.52  40.5 315  C 40.5 315  40.5 275  40.5 275  C 40.5 272.48  42.48 270.5  45 270.5  C 45 270.5  338.447836267491 270.5  338.447836267491 270.5  Z " stroke-width="1" stroke="#4bc1d0" fill="none" />
  </g>
</svg>