<?xml version="1.0" encoding="utf-8"?>
<svg version="1.1" xmlns:xlink="http://www.w3.org/1999/xlink" width="318px" height="50px" xmlns="http://www.w3.org/2000/svg">
  <g transform="matrix(1 0 0 1 -632 -270 )">
    <path d="M 930.447836267491 270.5  C 930.447836267491 270.5  933.758679870082 270.760286446745  933.758679870082 270.760286446745  C 933.758679870082 270.760286446745  949.46971968651 295  949.46971968651 295  C 949.46971968651 295  933.758679870082 319.239713553255  933.758679870082 319.239713553255  C 933.758679870082 319.239713553255  930.447836267491 319.5  930.447836267491 319.5  C 930.447836267491 319.5  637 319.5  637 319.5  C 634.48 319.5  632.5 317.52  632.5 315  C 632.5 315  632.5 275  632.5 275  C 632.5 272.48  634.48 270.5  637 270.5  C 637 270.5  930.447836267491 270.5  930.447836267491 270.5  Z " fill-rule="nonzero" fill="#ffffff" stroke="none" />
    <path d="M 930.447836267491 270.5  C 930.447836267491 270.5  933.758679870082 270.760286446745  933.758679870082 270.760286446745  C 933.758679870082 270.760286446745  949.46971968651 295  949.46971968651 295  C 949.46971968651 295  933.758679870082 319.239713553255  933.758679870082 319.239713553255  C 933.758679870082 319.239713553255  930.447836267491 319.5  930.447836267491 319.5  C 930.447836267491 319.5  637 319.5  637 319.5  C 634.48 319.5  632.5 317.52  632.5 315  C 632.5 315  632.5 275  632.5 275  C 632.5 272.48  634.48 270.5  637 270.5  C 637 270.5  930.447836267491 270.5  930.447836267491 270.5  Z " stroke-width="1" stroke="#e4e4e4" fill="none" />
  </g>
</svg>