<?xml version="1.0" encoding="utf-8"?>
<svg version="1.1" xmlns:xlink="http://www.w3.org/1999/xlink" width="12px" height="12px" viewBox="908 323  12 12" xmlns="http://www.w3.org/2000/svg">
  <path d="M 914 323  C 917.36 323  920 325.64  920 329  C 920 332.36  917.36 335  914 335  C 910.64 335  908 332.36  908 329  C 908 325.64  910.64 323  914 323  Z " fill-rule="nonzero" fill="#ffffff" stroke="none" fill-opacity="0" />
  <path d="M 914 323.5  C 917.08 323.5  919.5 325.92  919.5 329  C 919.5 332.08  917.08 334.5  914 334.5  C 910.92 334.5  908.5 332.08  908.5 329  C 908.5 325.92  910.92 323.5  914 323.5  Z " stroke-width="1" stroke="#797979" fill="none" />
  <path d="M 914 332  C 912.32 332  911 330.68  911 329  C 911 327.32  912.32 326  914 326  C 915.68 326  917 327.32  917 329  C 917 330.68  915.68 332  914 332  " fill-rule="nonzero" fill="#797979" stroke="none" />
</svg>