<?xml version="1.0" encoding="utf-8"?>
<svg version="1.1" xmlns:xlink="http://www.w3.org/1999/xlink" width="12px" height="12px" viewBox="863 362  12 12" xmlns="http://www.w3.org/2000/svg">
  <path d="M 869 362  C 872.36 362  875 364.64  875 368  C 875 371.36  872.36 374  869 374  C 865.64 374  863 371.36  863 368  C 863 364.64  865.64 362  869 362  Z " fill-rule="nonzero" fill="#ffffff" stroke="none" fill-opacity="0" />
  <path d="M 869 362.5  C 872.08 362.5  874.5 364.92  874.5 368  C 874.5 371.08  872.08 373.5  869 373.5  C 865.92 373.5  863.5 371.08  863.5 368  C 863.5 364.92  865.92 362.5  869 362.5  Z " stroke-width="1" stroke="#797979" fill="none" />
  <path d="M 869 371  C 867.32 371  866 369.68  866 368  C 866 366.32  867.32 365  869 365  C 870.68 365  872 366.32  872 368  C 872 369.68  870.68 371  869 371  " fill-rule="nonzero" fill="#797979" stroke="none" />
</svg>