<?xml version="1.0" encoding="utf-8"?>
<svg version="1.1" xmlns:xlink="http://www.w3.org/1999/xlink" width="12px" height="12px" viewBox="908 362  12 12" xmlns="http://www.w3.org/2000/svg">
  <path d="M 914 362  C 917.36 362  920 364.64  920 368  C 920 371.36  917.36 374  914 374  C 910.64 374  908 371.36  908 368  C 908 364.64  910.64 362  914 362  Z " fill-rule="nonzero" fill="#ffffff" stroke="none" fill-opacity="0" />
  <path d="M 914 362.5  C 917.08 362.5  919.5 364.92  919.5 368  C 919.5 371.08  917.08 373.5  914 373.5  C 910.92 373.5  908.5 371.08  908.5 368  C 908.5 364.92  910.92 362.5  914 362.5  Z " stroke-width="1" stroke="#797979" fill="none" />
  <path d="M 914 371  C 912.32 371  911 369.68  911 368  C 911 366.32  912.32 365  914 365  C 915.68 365  917 366.32  917 368  C 917 369.68  915.68 371  914 371  " fill-rule="nonzero" fill="#797979" stroke="none" />
</svg>