<?xml version="1.0" encoding="utf-8"?>
<svg version="1.1" xmlns:xlink="http://www.w3.org/1999/xlink" width="12px" height="12px" viewBox="608 438  12 12" xmlns="http://www.w3.org/2000/svg">
  <path d="M 614 438  C 617.36 438  620 440.64  620 444  C 620 447.36  617.36 450  614 450  C 610.64 450  608 447.36  608 444  C 608 440.64  610.64 438  614 438  Z " fill-rule="nonzero" fill="#ffffff" stroke="none" fill-opacity="0" />
  <path d="M 614 438.5  C 617.08 438.5  619.5 440.92  619.5 444  C 619.5 447.08  617.08 449.5  614 449.5  C 610.92 449.5  608.5 447.08  608.5 444  C 608.5 440.92  610.92 438.5  614 438.5  Z " stroke-width="1" stroke="#797979" fill="none" />
  <path d="M 614 447  C 612.32 447  611 445.68  611 444  C 611 442.32  612.32 441  614 441  C 615.68 441  617 442.32  617 444  C 617 445.68  615.68 447  614 447  " fill-rule="nonzero" fill="#797979" stroke="none" />
</svg>