<?xml version="1.0" encoding="utf-8"?>
<svg version="1.1" xmlns:xlink="http://www.w3.org/1999/xlink" width="12px" height="12px" viewBox="260 373  12 12" xmlns="http://www.w3.org/2000/svg">
  <path d="M 266 373  C 269.36 373  272 375.64  272 379  C 272 382.36  269.36 385  266 385  C 262.64 385  260 382.36  260 379  C 260 375.64  262.64 373  266 373  Z " fill-rule="nonzero" fill="#ffffff" stroke="none" fill-opacity="0" />
  <path d="M 266 373.5  C 269.08 373.5  271.5 375.92  271.5 379  C 271.5 382.08  269.08 384.5  266 384.5  C 262.92 384.5  260.5 382.08  260.5 379  C 260.5 375.92  262.92 373.5  266 373.5  Z " stroke-width="1" stroke="#797979" fill="none" />
  <path d="M 266 382  C 264.32 382  263 380.68  263 379  C 263 377.32  264.32 376  266 376  C 267.68 376  269 377.32  269 379  C 269 380.68  267.68 382  266 382  " fill-rule="nonzero" fill="#797979" stroke="none" />
</svg>