<?xml version="1.0" encoding="utf-8"?>
<svg version="1.1" xmlns:xlink="http://www.w3.org/1999/xlink" width="12px" height="12px" viewBox="335 373  12 12" xmlns="http://www.w3.org/2000/svg">
  <path d="M 341 373  C 344.36 373  347 375.64  347 379  C 347 382.36  344.36 385  341 385  C 337.64 385  335 382.36  335 379  C 335 375.64  337.64 373  341 373  Z " fill-rule="nonzero" fill="#ffffff" stroke="none" fill-opacity="0" />
  <path d="M 341 373.5  C 344.08 373.5  346.5 375.92  346.5 379  C 346.5 382.08  344.08 384.5  341 384.5  C 337.92 384.5  335.5 382.08  335.5 379  C 335.5 375.92  337.92 373.5  341 373.5  Z " stroke-width="1" stroke="#797979" fill="none" />
  <path d="M 341 382  C 339.32 382  338 380.68  338 379  C 338 377.32  339.32 376  341 376  C 342.68 376  344 377.32  344 379  C 344 380.68  342.68 382  341 382  " fill-rule="nonzero" fill="#797979" stroke="none" />
</svg>