<?xml version="1.0" encoding="utf-8"?>
<svg version="1.1" xmlns:xlink="http://www.w3.org/1999/xlink" width="110px" height="70px" xmlns="http://www.w3.org/2000/svg">
  <g transform="matrix(1 0 0 1 -1029 -288 )">
    <path d="M 1039.5 357.5  L 1138.5 357.5  L 1138.5 298.5  L 1133.5 298.5  L 1133.5 293.5  L 1128.5 293.5  L 1128.5 288.5  L 1029.5 288.5  L 1029.5 347.5  L 1034.5 347.5  L 1034.5 352.5  L 1039.5 352.5  L 1039.5 357.5  Z " fill-rule="nonzero" fill="#ffcc66" stroke="none" />
    <path d="M 1039.5 357.5  L 1138.5 357.5  L 1138.5 298.5  L 1133.5 298.5  L 1133.5 293.5  L 1128.5 293.5  L 1128.5 288.5  L 1029.5 288.5  L 1029.5 347.5  L 1034.5 347.5  L 1034.5 352.5  L 1039.5 352.5  L 1039.5 357.5  Z " stroke-width="1" stroke="#797979" fill="none" />
    <path d="M 1133.5 299  L 1133.5 352.5  L 1040 352.5  M 1128.5 294  L 1128.5 347.5  L 1035 347.5  " stroke-width="1" stroke="#797979" fill="none" />
  </g>
</svg>