<?xml version="1.0" encoding="utf-8"?>
<svg version="1.1" xmlns:xlink="http://www.w3.org/1999/xlink" width="110px" height="70px" xmlns="http://www.w3.org/2000/svg">
  <g transform="matrix(1 0 0 1 -1029 -3002 )">
    <path d="M 1039.5 3071.5  L 1138.5 3071.5  L 1138.5 3012.5  L 1133.5 3012.5  L 1133.5 3007.5  L 1128.5 3007.5  L 1128.5 3002.5  L 1029.5 3002.5  L 1029.5 3061.5  L 1034.5 3061.5  L 1034.5 3066.5  L 1039.5 3066.5  L 1039.5 3071.5  Z " fill-rule="nonzero" fill="#cccc00" stroke="none" />
    <path d="M 1039.5 3071.5  L 1138.5 3071.5  L 1138.5 3012.5  L 1133.5 3012.5  L 1133.5 3007.5  L 1128.5 3007.5  L 1128.5 3002.5  L 1029.5 3002.5  L 1029.5 3061.5  L 1034.5 3061.5  L 1034.5 3066.5  L 1039.5 3066.5  L 1039.5 3071.5  Z " stroke-width="1" stroke="#797979" fill="none" />
    <path d="M 1133.5 3013  L 1133.5 3066.5  L 1040 3066.5  M 1128.5 3008  L 1128.5 3061.5  L 1035 3061.5  " stroke-width="1" stroke="#797979" fill="none" />
  </g>
</svg>