<?xml version="1.0" encoding="utf-8"?>
<svg version="1.1" xmlns:xlink="http://www.w3.org/1999/xlink" width="76px" height="10px" preserveAspectRatio="xMinYMid meet" viewBox="1979 1923  76 8" xmlns="http://www.w3.org/2000/svg">
  <defs>
    <mask fill="white" id="clip774">
      <path d="M 1681 2226  L 1753 2226  L 1753 2253  L 1681 2253  Z M 1075 1924  L 2053 1924  L 2053 2333  L 1075 2333  Z " fill-rule="evenodd" />
    </mask>
  </defs>
  <path d="M 1979 1927.5  L 2045 1927.5  A 5 5 0 0 1 2050.5 1932.5 L 2050.5 2235  A 5 5 0 0 1 2045 2240.5 L 1762 2240.5  A 3 3 0 0 0 1759 2237.5 A 3 3 0 0 0 1756 2240.5 L 1595 2240.5  A 3 3 0 0 0 1592 2237.5 A 3 3 0 0 0 1589 2240.5 L 1089 2240.5  A 5 5 0 0 0 1084.5 2245.5 L 1084.5 2323  " stroke-width="1" stroke-dasharray="3,1" stroke="#cccccc" fill="none" mask="url(#clip774)" />
  <path d="M 1089.14644660941 2317.94644660941  L 1084.5 2322.59289321881  L 1079.85355339059 2317.94644660941  L 1079.14644660941 2318.65355339059  L 1084.14644660941 2323.65355339059  L 1084.5 2324.00710678119  L 1084.85355339059 2323.65355339059  L 1089.85355339059 2318.65355339059  L 1089.14644660941 2317.94644660941  Z " fill-rule="nonzero" fill="#cccccc" stroke="none" mask="url(#clip774)" />
</svg>