<?xml version="1.0" encoding="utf-8"?>
<svg version="1.1" xmlns:xlink="http://www.w3.org/1999/xlink" width="110px" height="70px" xmlns="http://www.w3.org/2000/svg">
  <g transform="matrix(1 0 0 1 -1029 -1953 )">
    <path d="M 1039.5 2022.5  L 1138.5 2022.5  L 1138.5 1963.5  L 1133.5 1963.5  L 1133.5 1958.5  L 1128.5 1958.5  L 1128.5 1953.5  L 1029.5 1953.5  L 1029.5 2012.5  L 1034.5 2012.5  L 1034.5 2017.5  L 1039.5 2017.5  L 1039.5 2022.5  Z " fill-rule="nonzero" fill="#ff6666" stroke="none" />
    <path d="M 1039.5 2022.5  L 1138.5 2022.5  L 1138.5 1963.5  L 1133.5 1963.5  L 1133.5 1958.5  L 1128.5 1958.5  L 1128.5 1953.5  L 1029.5 1953.5  L 1029.5 2012.5  L 1034.5 2012.5  L 1034.5 2017.5  L 1039.5 2017.5  L 1039.5 2022.5  Z " stroke-width="1" stroke="#797979" fill="none" />
    <path d="M 1133.5 1964  L 1133.5 2017.5  L 1040 2017.5  M 1128.5 1959  L 1128.5 2012.5  L 1035 2012.5  " stroke-width="1" stroke="#797979" fill="none" />
  </g>
</svg>