<?xml version="1.0" encoding="utf-8"?>
<svg version="1.1" xmlns:xlink="http://www.w3.org/1999/xlink" width="18px" height="18px" preserveAspectRatio="xMinYMid meet" viewBox="1413 284  18 16" xmlns="http://www.w3.org/2000/svg">
  <defs>
    <mask fill="white" id="clip752">
      <path d="M 1644 604  L 1716 604  L 1716 631  L 1644 631  Z M 1413 247  L 1716 247  L 1716 1251  L 1413 1251  Z " fill-rule="evenodd" />
    </mask>
  </defs>
  <path d="M 1642 1248.5  L 1675 1248.5  A 5 5 0 0 0 1680.5 1243 L 1680.5 696  A 3 3 0 0 0 1683.5 693 A 3 3 0 0 0 1680.5 690 L 1680.5 255  A 5 5 0 0 0 1675.5 250.5 L 1427 250.5  A 5 5 0 0 0 1422.5 255.5 L 1422.5 292  " stroke-width="1" stroke-dasharray="3,1" stroke="#cccccc" fill="none" mask="url(#clip752)" />
  <path d="M 1427.14644660941 286.946446609407  L 1422.5 291.592893218813  L 1417.85355339059 286.946446609407  L 1417.14644660941 287.653553390593  L 1422.14644660941 292.653553390593  L 1422.5 293.007106781187  L 1422.85355339059 292.653553390593  L 1427.85355339059 287.653553390593  L 1427.14644660941 286.946446609407  Z " fill-rule="nonzero" fill="#cccccc" stroke="none" mask="url(#clip752)" />
</svg>