<?xml version="1.0" encoding="utf-8"?>
<svg version="1.1" xmlns:xlink="http://www.w3.org/1999/xlink" width="766px" height="10px" preserveAspectRatio="xMinYMid meet" viewBox="1079 1486  766 8" xmlns="http://www.w3.org/2000/svg">
  <defs>
    <mask fill="white" id="clip768">
      <path d="M 1804 1067  L 1876 1067  L 1876 1094  L 1804 1094  Z M 1075 417  L 1876 417  L 1876 1531  L 1075 1531  Z " fill-rule="evenodd" />
    </mask>
  </defs>
  <path d="M 1303 420.5  L 1527 420.5  A 3 3 0 0 1 1530 417.5 A 3 3 0 0 1 1533 420.5 L 1677 420.5  A 3 3 0 0 1 1680 417.5 A 3 3 0 0 1 1683 420.5 L 1835 420.5  A 5 5 0 0 1 1840.5 425 L 1840.5 690  A 3 3 0 0 1 1843.5 693 A 3 3 0 0 1 1840.5 696 L 1840.5 1369  A 3 3 0 0 1 1843.5 1372 A 3 3 0 0 1 1840.5 1375 L 1840.5 1485  A 5 5 0 0 1 1835.5 1490.5 L 1089 1490.5  A 5 5 0 0 0 1084.5 1495.5 L 1084.5 1521  " stroke-width="1" stroke-dasharray="3,1" stroke="#cccccc" fill="none" mask="url(#clip768)" />
  <path d="M 1089.14644660941 1515.94644660941  L 1084.5 1520.59289321881  L 1079.85355339059 1515.94644660941  L 1079.14644660941 1516.65355339059  L 1084.14644660941 1521.65355339059  L 1084.5 1522.00710678119  L 1084.85355339059 1521.65355339059  L 1089.85355339059 1516.65355339059  L 1089.14644660941 1515.94644660941  Z " fill-rule="nonzero" fill="#cccccc" stroke="none" mask="url(#clip768)" />
</svg>