<?xml version="1.0" encoding="utf-8"?>
<svg version="1.1" xmlns:xlink="http://www.w3.org/1999/xlink" width="110px" height="70px" xmlns="http://www.w3.org/2000/svg">
  <g transform="matrix(1 0 0 1 -1028 -6210 )">
    <path d="M 1038.5 6279.5  L 1137.5 6279.5  L 1137.5 6220.5  L 1132.5 6220.5  L 1132.5 6215.5  L 1127.5 6215.5  L 1127.5 6210.5  L 1028.5 6210.5  L 1028.5 6269.5  L 1033.5 6269.5  L 1033.5 6274.5  L 1038.5 6274.5  L 1038.5 6279.5  Z " fill-rule="nonzero" fill="#33cc66" stroke="none" />
    <path d="M 1038.5 6279.5  L 1137.5 6279.5  L 1137.5 6220.5  L 1132.5 6220.5  L 1132.5 6215.5  L 1127.5 6215.5  L 1127.5 6210.5  L 1028.5 6210.5  L 1028.5 6269.5  L 1033.5 6269.5  L 1033.5 6274.5  L 1038.5 6274.5  L 1038.5 6279.5  Z " stroke-width="1" stroke="#797979" fill="none" />
    <path d="M 1132.5 6221  L 1132.5 6274.5  L 1039 6274.5  M 1127.5 6216  L 1127.5 6269.5  L 1034 6269.5  " stroke-width="1" stroke="#797979" fill="none" />
  </g>
</svg>