<?xml version="1.0" encoding="utf-8"?>
<svg version="1.1" xmlns:xlink="http://www.w3.org/1999/xlink" width="110px" height="70px" xmlns="http://www.w3.org/2000/svg">
  <g transform="matrix(1 0 0 1 -1029 -7689 )">
    <path d="M 1039.5 7758.5  L 1138.5 7758.5  L 1138.5 7699.5  L 1133.5 7699.5  L 1133.5 7694.5  L 1128.5 7694.5  L 1128.5 7689.5  L 1029.5 7689.5  L 1029.5 7748.5  L 1034.5 7748.5  L 1034.5 7753.5  L 1039.5 7753.5  L 1039.5 7758.5  Z " fill-rule="nonzero" fill="#00ccff" stroke="none" />
    <path d="M 1039.5 7758.5  L 1138.5 7758.5  L 1138.5 7699.5  L 1133.5 7699.5  L 1133.5 7694.5  L 1128.5 7694.5  L 1128.5 7689.5  L 1029.5 7689.5  L 1029.5 7748.5  L 1034.5 7748.5  L 1034.5 7753.5  L 1039.5 7753.5  L 1039.5 7758.5  Z " stroke-width="1" stroke="#797979" fill="none" />
    <path d="M 1133.5 7700  L 1133.5 7753.5  L 1040 7753.5  M 1128.5 7695  L 1128.5 7748.5  L 1035 7748.5  " stroke-width="1" stroke="#797979" fill="none" />
  </g>
</svg>