<?xml version="1.0" encoding="utf-8"?>
<svg version="1.1" xmlns:xlink="http://www.w3.org/1999/xlink" width="10px" height="77px" preserveAspectRatio="xMidYMin meet" viewBox="1418 2018  8 77" xmlns="http://www.w3.org/2000/svg">
  <defs>
    <mask fill="white" id="clip825">
      <path d="M 884 3150  L 956 3150  L 956 3177  L 884 3177  Z M 884 2009  L 1431 2009  L 1431 4706  L 884 4706  Z " fill-rule="evenodd" />
    </mask>
  </defs>
  <path d="M 1029 4703.5  L 925 4703.5  A 5 5 0 0 1 920.5 4698 L 920.5 3040  A 3 3 0 0 0 923.5 3037 A 3 3 0 0 0 920.5 3034 L 920.5 2095  A 5 5 0 0 1 925.5 2090.5 L 1417 2090.5  A 5 5 0 0 0 1422.5 2085.5 L 1422.5 2019  " stroke-width="1" stroke-dasharray="3,1" stroke="#cccccc" fill="none" mask="url(#clip825)" />
  <path d="M 1417.85355339059 2024.05355339059  L 1422.5 2019.40710678119  L 1427.14644660941 2024.05355339059  L 1427.85355339059 2023.34644660941  L 1422.85355339059 2018.34644660941  L 1422.5 2017.99289321881  L 1422.14644660941 2018.34644660941  L 1417.14644660941 2023.34644660941  L 1417.85355339059 2024.05355339059  Z " fill-rule="nonzero" fill="#cccccc" stroke="none" mask="url(#clip825)" />
</svg>