<?xml version="1.0" encoding="utf-8"?>
<svg version="1.1" xmlns:xlink="http://www.w3.org/1999/xlink" width="10px" height="1429px" preserveAspectRatio="xMidYMin meet" viewBox="966 3279  8 1429" xmlns="http://www.w3.org/2000/svg">
  <defs>
    <mask fill="white" id="clip828">
      <path d="M 934 3980  L 1006 3980  L 1006 4007  L 934 4007  Z M 934 3275  L 1038 3275  L 1038 4706  L 934 4706  Z " fill-rule="evenodd" />
    </mask>
  </defs>
  <path d="M 1029 4703.5  L 975 4703.5  A 5 5 0 0 1 970.5 4698 L 970.5 4274  A 3 3 0 0 0 973.5 4271 A 3 3 0 0 0 970.5 4268 L 970.5 3289  A 5 5 0 0 1 975.5 3284.5 L 1028 3284.5  " stroke-width="1" stroke-dasharray="3,1" stroke="#cccccc" fill="none" mask="url(#clip828)" />
  <path d="M 1022.94644660941 3279.85355339059  L 1027.59289321881 3284.5  L 1022.94644660941 3289.14644660941  L 1023.65355339059 3289.85355339059  L 1028.65355339059 3284.85355339059  L 1029.00710678119 3284.5  L 1028.65355339059 3284.14644660941  L 1023.65355339059 3279.14644660941  L 1022.94644660941 3279.85355339059  Z " fill-rule="nonzero" fill="#cccccc" stroke="none" mask="url(#clip828)" />
</svg>