<?xml version="1.0" encoding="utf-8"?>
<svg version="1.1" xmlns:xlink="http://www.w3.org/1999/xlink" width="18px" height="18px" preserveAspectRatio="xMinYMid meet" viewBox="1075 2387  18 16" xmlns="http://www.w3.org/2000/svg">
  <defs>
    <mask fill="white" id="clip813">
      <path d="M 944 2650  L 1016 2650  L 1016 2677  L 944 2677  Z M 944 2385  L 1256 2385  L 1256 2733  L 944 2733  Z " fill-rule="evenodd" />
    </mask>
  </defs>
  <path d="M 1253.5 2696  L 1253.5 2725  A 5 5 0 0 1 1248.5 2730.5 L 985 2730.5  A 5 5 0 0 1 980.5 2725.5 L 980.5 2445  A 5 5 0 0 1 985.5 2440.5 L 1079 2440.5  A 5 5 0 0 0 1084.5 2435.5 L 1084.5 2395  " stroke-width="1" stroke-dasharray="3,1" stroke="#cccccc" fill="none" mask="url(#clip813)" />
  <path d="M 1079.85355339059 2400.05355339059  L 1084.5 2395.40710678119  L 1089.14644660941 2400.05355339059  L 1089.85355339059 2399.34644660941  L 1084.85355339059 2394.34644660941  L 1084.5 2393.99289321881  L 1084.14644660941 2394.34644660941  L 1079.14644660941 2399.34644660941  L 1079.85355339059 2400.05355339059  Z " fill-rule="nonzero" fill="#cccccc" stroke="none" mask="url(#clip813)" />
</svg>