<?xml version="1.0" encoding="utf-8"?>
<svg version="1.1" xmlns:xlink="http://www.w3.org/1999/xlink" width="10px" height="35px" preserveAspectRatio="xMidYMin meet" viewBox="1249 3095  8 35" xmlns="http://www.w3.org/2000/svg">
  <defs>
    <mask fill="white" id="clip799">
      <path d="M 1531 3755  L 1629 3755  L 1629 3782  L 1531 3782  Z M 1244 3097  L 1629 3097  L 1629 4520  L 1244 4520  Z " fill-rule="evenodd" />
    </mask>
  </defs>
  <path d="M 1303 4517.5  L 1575 4517.5  A 5 5 0 0 0 1580.5 4512.5 L 1580.5 3105  A 5 5 0 0 0 1575.5 3100.5 L 1258 3100.5  A 5 5 0 0 0 1253.5 3105.5 L 1253.5 3129  " stroke-width="1" stroke-dasharray="3,1" stroke="#cccccc" fill="none" mask="url(#clip799)" />
  <path d="M 1258.14644660941 3123.94644660941  L 1253.5 3128.59289321881  L 1248.85355339059 3123.94644660941  L 1248.14644660941 3124.65355339059  L 1253.14644660941 3129.65355339059  L 1253.5 3130.00710678119  L 1253.85355339059 3129.65355339059  L 1258.85355339059 3124.65355339059  L 1258.14644660941 3123.94644660941  Z " fill-rule="nonzero" fill="#cccccc" stroke="none" mask="url(#clip799)" />
</svg>