<?xml version="1.0" encoding="utf-8"?>
<svg version="1.1" xmlns:xlink="http://www.w3.org/1999/xlink" width="110px" height="70px" xmlns="http://www.w3.org/2000/svg">
  <g transform="matrix(1 0 0 1 -1029 -8799 )">
    <path d="M 1039.5 8868.5  L 1138.5 8868.5  L 1138.5 8809.5  L 1133.5 8809.5  L 1133.5 8804.5  L 1128.5 8804.5  L 1128.5 8799.5  L 1029.5 8799.5  L 1029.5 8858.5  L 1034.5 8858.5  L 1034.5 8863.5  L 1039.5 8863.5  L 1039.5 8868.5  Z " fill-rule="nonzero" fill="#cc9999" stroke="none" />
    <path d="M 1039.5 8868.5  L 1138.5 8868.5  L 1138.5 8809.5  L 1133.5 8809.5  L 1133.5 8804.5  L 1128.5 8804.5  L 1128.5 8799.5  L 1029.5 8799.5  L 1029.5 8858.5  L 1034.5 8858.5  L 1034.5 8863.5  L 1039.5 8863.5  L 1039.5 8868.5  Z " stroke-width="1" stroke="#797979" fill="none" />
    <path d="M 1133.5 8810  L 1133.5 8863.5  L 1040 8863.5  M 1128.5 8805  L 1128.5 8858.5  L 1035 8858.5  " stroke-width="1" stroke="#797979" fill="none" />
  </g>
</svg>