<?xml version="1.0" encoding="utf-8"?>
<svg version="1.1" xmlns:xlink="http://www.w3.org/1999/xlink" width="10px" height="814px" preserveAspectRatio="xMidYMin meet" viewBox="1546 7471  8 814" xmlns="http://www.w3.org/2000/svg">
  <defs>
    <mask fill="white" id="clip788">
      <path d="M 1514 7823  L 1586 7823  L 1586 7850  L 1514 7850  Z M 1139 7473  L 1586 7473  L 1586 8319  L 1139 8319  Z " fill-rule="evenodd" />
    </mask>
  </defs>
  <path d="M 1139 7476.5  L 1545 7476.5  A 5 5 0 0 1 1550.5 7481.5 L 1550.5 8275  A 5 5 0 0 1 1545.5 8280.5 L 1258 8280.5  A 5 5 0 0 0 1253.5 8285.5 L 1253.5 8309  " stroke-width="1" stroke-dasharray="3,1" stroke="#cccccc" fill="none" mask="url(#clip788)" />
  <path d="M 1258.14644660941 8303.94644660941  L 1253.5 8308.59289321881  L 1248.85355339059 8303.94644660941  L 1248.14644660941 8304.65355339059  L 1253.14644660941 8309.65355339059  L 1253.5 8310.00710678118  L 1253.85355339059 8309.65355339059  L 1258.85355339059 8304.65355339059  L 1258.14644660941 8303.94644660941  Z " fill-rule="nonzero" fill="#cccccc" stroke="none" mask="url(#clip788)" />
</svg>