<?xml version="1.0" encoding="utf-8"?>
<svg version="1.1" xmlns:xlink="http://www.w3.org/1999/xlink" width="420px" height="50px" xmlns="http://www.w3.org/2000/svg">
  <g transform="matrix(1 0 0 1 -51 -170 )">
    <path d="M 451.663204797851 170.5  C 451.663204797851 170.5  454.765233452 170.684644562747  454.765233452 170.684644562747  C 454.765233452 170.684644562747  470.476693888379 195  470.476693888379 195  C 470.476693888379 195  454.765233452 219.315355437253  454.765233452 219.315355437253  C 454.765233452 219.315355437253  451.663204797851 219.5  451.663204797851 219.5  C 451.663204797851 219.5  56 219.5  56 219.5  C 53.48 219.5  51.5 217.52  51.5 215  C 51.5 215  51.5 175  51.5 175  C 51.5 172.48  53.48 170.5  56 170.5  C 56 170.5  451.663204797851 170.5  451.663204797851 170.5  Z " fill-rule="nonzero" fill="#4bc1d0" stroke="none" />
    <path d="M 451.663204797851 170.5  C 451.663204797851 170.5  454.765233452 170.684644562747  454.765233452 170.684644562747  C 454.765233452 170.684644562747  470.476693888379 195  470.476693888379 195  C 470.476693888379 195  454.765233452 219.315355437253  454.765233452 219.315355437253  C 454.765233452 219.315355437253  451.663204797851 219.5  451.663204797851 219.5  C 451.663204797851 219.5  56 219.5  56 219.5  C 53.48 219.5  51.5 217.52  51.5 215  C 51.5 215  51.5 175  51.5 175  C 51.5 172.48  53.48 170.5  56 170.5  C 56 170.5  451.663204797851 170.5  451.663204797851 170.5  Z " stroke-width="1" stroke="#e4e4e4" fill="none" />
  </g>
</svg>