<?xml version="1.0" encoding="utf-8"?>
<svg version="1.1" xmlns:xlink="http://www.w3.org/1999/xlink" width="418px" height="50px" xmlns="http://www.w3.org/2000/svg">
  <g transform="matrix(1 0 0 1 -438 -170 )">
    <path d="M 836.658981885491 170.5  C 836.658981885491 170.5  839.765134925124 170.685774703327  839.765134925124 170.685774703327  C 839.765134925124 170.685774703327  855.476587947747 195  855.476587947747 195  C 855.476587947747 195  839.765134925124 219.314225296673  839.765134925124 219.314225296673  C 839.765134925124 219.314225296673  836.658981885491 219.5  836.658981885491 219.5  C 836.658981885491 219.5  443 219.5  443 219.5  C 440.48 219.5  438.5 217.52  438.5 215  C 438.5 215  438.5 175  438.5 175  C 438.5 172.48  440.48 170.5  443 170.5  C 443 170.5  836.658981885491 170.5  836.658981885491 170.5  Z " fill-rule="nonzero" fill="#ffffff" stroke="none" />
    <path d="M 836.658981885491 170.5  C 836.658981885491 170.5  839.765134925124 170.685774703327  839.765134925124 170.685774703327  C 839.765134925124 170.685774703327  855.476587947747 195  855.476587947747 195  C 855.476587947747 195  839.765134925124 219.314225296673  839.765134925124 219.314225296673  C 839.765134925124 219.314225296673  836.658981885491 219.5  836.658981885491 219.5  C 836.658981885491 219.5  443 219.5  443 219.5  C 440.48 219.5  438.5 217.52  438.5 215  C 438.5 215  438.5 175  438.5 175  C 438.5 172.48  440.48 170.5  443 170.5  C 443 170.5  836.658981885491 170.5  836.658981885491 170.5  Z " stroke-width="1" stroke="#e4e4e4" fill="none" />
  </g>
</svg>