<?xml version="1.0" encoding="utf-8"?>
<svg version="1.1" xmlns:xlink="http://www.w3.org/1999/xlink" width="169px" height="50px" xmlns="http://www.w3.org/2000/svg">
  <g transform="matrix(1 0 0 1 -999 -624 )">
    <path d="M 999 657.052640300486  C 999 657.052640300486  999 629  999 629  C 999 626.238576250846  1001.23857625085 624  1004 624  C 1004 624  1163 624  1163 624  C 1165.76142374915 624  1168 626.238576250846  1168 629  C 1168 629  1168 657.052640300486  1168 657.052640300486  C 1168 659.81406404964  1165.76142374915 662.052640300486  1163 662.052640300486  C 1163 662.052640300486  1053.46167840376 662.052640300486  1053.46167840376 662.052640300486  C 1053.46167840376 662.052640300486  1043.29966744914 673.148329098542  1043.29966744914 673.148329098542  C 1043.29966744914 673.148329098542  1033.46167840376 662.052640300486  1033.46167840376 662.052640300486  C 1033.46167840376 662.052640300486  1004 662.052640300486  1004 662.052640300486  C 1001.23857625085 662.052640300486  999 659.81406404964  999 657.052640300486  Z " fill-rule="nonzero" fill="#000000" stroke="none" fill-opacity="0.8" />
  </g>
</svg>