<?xml version="1.0" encoding="utf-8"?>
<svg version="1.1" xmlns:xlink="http://www.w3.org/1999/xlink" width="233px" height="51px" xmlns="http://www.w3.org/2000/svg">
  <g transform="matrix(1 0 0 1 -1034 -563 )">
    <path d="M 1034 597.743868758285  C 1034 597.743868758285  1034 568  1034 568  C 1034 565.238576250846  1036.23857625085 563  1039 563  C 1039 563  1262 563  1262 563  C 1264.76142374915 563  1267 565.238576250846  1267 568  C 1267 568  1267 597.743868758285  1267 597.743868758285  C 1267 600.505292507439  1264.76142374915 602.743868758285  1262 602.743868758285  C 1262 602.743868758285  1106.23820422535 602.743868758285  1106.23820422535 602.743868758285  C 1106.23820422535 602.743868758285  1094.49522691706 613.40381039181  1094.49522691706 613.40381039181  C 1094.49522691706 613.40381039181  1084.36026995305 602.743868758285  1084.36026995305 602.743868758285  C 1084.36026995305 602.743868758285  1039 602.743868758285  1039 602.743868758285  C 1036.23857625085 602.743868758285  1034 600.505292507439  1034 597.743868758285  Z " fill-rule="nonzero" fill="#000000" stroke="none" fill-opacity="0.8" />
  </g>
</svg>