<?xml version="1.0" encoding="utf-8"?>
<svg version="1.1" xmlns:xlink="http://www.w3.org/1999/xlink" width="318px" height="50px" xmlns="http://www.w3.org/2000/svg">
  <g transform="matrix(1 0 0 1 -40 -170 )">
    <path d="M 338.447836267491 170.5  C 338.447836267491 170.5  341.758679870082 170.760286446745  341.758679870082 170.760286446745  C 341.758679870082 170.760286446745  357.46971968651 195  357.46971968651 195  C 357.46971968651 195  341.758679870082 219.239713553255  341.758679870082 219.239713553255  C 341.758679870082 219.239713553255  338.447836267491 219.5  338.447836267491 219.5  C 338.447836267491 219.5  45 219.5  45 219.5  C 42.48 219.5  40.5 217.52  40.5 215  C 40.5 215  40.5 175  40.5 175  C 40.5 172.48  42.48 170.5  45 170.5  C 45 170.5  338.447836267491 170.5  338.447836267491 170.5  Z " fill-rule="nonzero" fill="#4bc1d0" stroke="none" />
    <path d="M 338.447836267491 170.5  C 338.447836267491 170.5  341.758679870082 170.760286446745  341.758679870082 170.760286446745  C 341.758679870082 170.760286446745  357.46971968651 195  357.46971968651 195  C 357.46971968651 195  341.758679870082 219.239713553255  341.758679870082 219.239713553255  C 341.758679870082 219.239713553255  338.447836267491 219.5  338.447836267491 219.5  C 338.447836267491 219.5  45 219.5  45 219.5  C 42.48 219.5  40.5 217.52  40.5 215  C 40.5 215  40.5 175  40.5 175  C 40.5 172.48  42.48 170.5  45 170.5  C 45 170.5  338.447836267491 170.5  338.447836267491 170.5  Z " stroke-width="1" stroke="#e4e4e4" fill="none" />
  </g>
</svg>