<?xml version="1.0" encoding="utf-8"?>
<svg version="1.1" xmlns:xlink="http://www.w3.org/1999/xlink" width="320px" height="50px" xmlns="http://www.w3.org/2000/svg">
  <g transform="matrix(1 0 0 1 -337 -170 )">
    <path d="M 637.452059179851 170.5  C 637.452059179851 170.5  640.758847150117 170.758342810177  640.758847150117 170.758342810177  C 640.758847150117 170.758342810177  656.469895860483 195  656.469895860483 195  C 656.469895860483 195  640.758847150117 219.241657189823  640.758847150117 219.241657189823  C 640.758847150117 219.241657189823  637.452059179851 219.5  637.452059179851 219.5  C 637.452059179851 219.5  342 219.5  342 219.5  C 339.48 219.5  337.5 217.52  337.5 215  C 337.5 215  337.5 175  337.5 175  C 337.5 172.48  339.48 170.5  342 170.5  C 342 170.5  637.452059179851 170.5  637.452059179851 170.5  Z " fill-rule="nonzero" fill="#4bc1d0" stroke="none" />
    <path d="M 637.452059179851 170.5  C 637.452059179851 170.5  640.758847150117 170.758342810177  640.758847150117 170.758342810177  C 640.758847150117 170.758342810177  656.469895860483 195  656.469895860483 195  C 656.469895860483 195  640.758847150117 219.241657189823  640.758847150117 219.241657189823  C 640.758847150117 219.241657189823  637.452059179851 219.5  637.452059179851 219.5  C 637.452059179851 219.5  342 219.5  342 219.5  C 339.48 219.5  337.5 217.52  337.5 215  C 337.5 215  337.5 175  337.5 175  C 337.5 172.48  339.48 170.5  342 170.5  C 342 170.5  637.452059179851 170.5  637.452059179851 170.5  Z " stroke-width="1" stroke="#e4e4e4" fill="none" />
  </g>
</svg>