<?xml version="1.0" encoding="utf-8"?>
<svg version="1.1" xmlns:xlink="http://www.w3.org/1999/xlink" width="133px" height="48px" xmlns="http://www.w3.org/2000/svg">
  <g transform="matrix(1 0 0 1 -756 -1590 )">
    <path d="M 756 1622.8  C 756 1622.8  756 1595  756 1595  C 756 1592.23857625085  758.238576250846 1590  761 1590  C 761 1590  884 1590  884 1590  C 886.761423749154 1590  889 1592.23857625085  889 1595  C 889 1595  889 1622.8  889 1622.8  C 889 1625.56142374915  886.761423749154 1627.8  884 1627.8  C 884 1627.8  800.990551643192 1627.8  800.990551643192 1627.8  C 800.990551643192 1627.8  790.860465571205 1637.75  790.860465571205 1637.75  C 790.860465571205 1637.75  780.990551643192 1627.8  780.990551643192 1627.8  C 780.990551643192 1627.8  761 1627.8  761 1627.8  C 758.238576250846 1627.8  756 1625.56142374915  756 1622.8  Z " fill-rule="nonzero" fill="#000000" stroke="none" fill-opacity="0.8" />
  </g>
</svg>