<?xml version="1.0" encoding="utf-8"?>
<svg version="1.1" xmlns:xlink="http://www.w3.org/1999/xlink" width="300px" height="30px" xmlns="http://www.w3.org/2000/svg">
  <g transform="matrix(1 0 0 1 -20 -20 )">
    <path d="M 20.5 35  A 14.5 14.5 0 0 1 35 20.5 L 305 20.5  A 14.5 14.5 0 0 1 319.5 35 A 14.5 14.5 0 0 1 305 49.5 L 35 49.5  A 14.5 14.5 0 0 1 20.5 35 Z " fill-rule="nonzero" fill="#ffffff" stroke="none" />
    <path d="M 20.5 35  A 14.5 14.5 0 0 1 35 20.5 L 305 20.5  A 14.5 14.5 0 0 1 319.5 35 A 14.5 14.5 0 0 1 305 49.5 L 35 49.5  A 14.5 14.5 0 0 1 20.5 35 Z " stroke-width="1" stroke="#0079fe" fill="none" />
  </g>
</svg>