<?xml version="1.0" encoding="utf-8"?>
<svg version="1.1" xmlns:xlink="http://www.w3.org/1999/xlink" width="12px" height="12px" viewBox="187 148  12 12" xmlns="http://www.w3.org/2000/svg">
  <path d="M 193 148  C 196.36 148  199 150.64  199 154  C 199 157.36  196.36 160  193 160  C 189.64 160  187 157.36  187 154  C 187 150.64  189.64 148  193 148  Z " fill-rule="nonzero" fill="#ffffff" stroke="none" fill-opacity="0" />
  <path d="M 193 148.5  C 196.08 148.5  198.5 150.92  198.5 154  C 198.5 157.08  196.08 159.5  193 159.5  C 189.92 159.5  187.5 157.08  187.5 154  C 187.5 150.92  189.92 148.5  193 148.5  Z " stroke-width="1" stroke="#797979" fill="none" />
  <path d="M 193 157  C 191.32 157  190 155.68  190 154  C 190 152.32  191.32 151  193 151  C 194.68 151  196 152.32  196 154  C 196 155.68  194.68 157  193 157  " fill-rule="nonzero" fill="#797979" stroke="none" />
</svg>