<?xml version="1.0" encoding="utf-8"?>
<svg version="1.1" xmlns:xlink="http://www.w3.org/1999/xlink" width="12px" height="12px" viewBox="258 1002  12 12" xmlns="http://www.w3.org/2000/svg">
  <path d="M 264 1002  C 267.36 1002  270 1004.64  270 1008  C 270 1011.36  267.36 1014  264 1014  C 260.64 1014  258 1011.36  258 1008  C 258 1004.64  260.64 1002  264 1002  Z " fill-rule="nonzero" fill="#ffffff" stroke="none" fill-opacity="0" />
  <path d="M 264 1002.5  C 267.08 1002.5  269.5 1004.92  269.5 1008  C 269.5 1011.08  267.08 1013.5  264 1013.5  C 260.92 1013.5  258.5 1011.08  258.5 1008  C 258.5 1004.92  260.92 1002.5  264 1002.5  Z " stroke-width="1" stroke="#797979" fill="none" />
  <path d="M 264 1011  C 262.32 1011  261 1009.68  261 1008  C 261 1006.32  262.32 1005  264 1005  C 265.68 1005  267 1006.32  267 1008  C 267 1009.68  265.68 1011  264 1011  " fill-rule="nonzero" fill="#797979" stroke="none" />
</svg>