<?xml version="1.0" encoding="utf-8"?>
<svg version="1.1" xmlns:xlink="http://www.w3.org/1999/xlink" width="12px" height="12px" viewBox="278 451  12 12" xmlns="http://www.w3.org/2000/svg">
  <path d="M 284 451  C 287.36 451  290 453.64  290 457  C 290 460.36  287.36 463  284 463  C 280.64 463  278 460.36  278 457  C 278 453.64  280.64 451  284 451  Z " fill-rule="nonzero" fill="#ffffff" stroke="none" fill-opacity="0" />
  <path d="M 284 451.5  C 287.08 451.5  289.5 453.92  289.5 457  C 289.5 460.08  287.08 462.5  284 462.5  C 280.92 462.5  278.5 460.08  278.5 457  C 278.5 453.92  280.92 451.5  284 451.5  Z " stroke-width="1" stroke="#797979" fill="none" />
  <path d="M 284 460  C 282.32 460  281 458.68  281 457  C 281 455.32  282.32 454  284 454  C 285.68 454  287 455.32  287 457  C 287 458.68  285.68 460  284 460  " fill-rule="nonzero" fill="#797979" stroke="none" />
</svg>