<?xml version="1.0" encoding="utf-8"?>
<svg version="1.1" xmlns:xlink="http://www.w3.org/1999/xlink" width="12px" height="12px" viewBox="278 311  12 12" xmlns="http://www.w3.org/2000/svg">
  <path d="M 284 311  C 287.36 311  290 313.64  290 317  C 290 320.36  287.36 323  284 323  C 280.64 323  278 320.36  278 317  C 278 313.64  280.64 311  284 311  Z " fill-rule="nonzero" fill="#ffffff" stroke="none" fill-opacity="0" />
  <path d="M 284 311.5  C 287.08 311.5  289.5 313.92  289.5 317  C 289.5 320.08  287.08 322.5  284 322.5  C 280.92 322.5  278.5 320.08  278.5 317  C 278.5 313.92  280.92 311.5  284 311.5  Z " stroke-width="1" stroke="#797979" fill="none" />
  <path d="M 284 320  C 282.32 320  281 318.68  281 317  C 281 315.32  282.32 314  284 314  C 285.68 314  287 315.32  287 317  C 287 318.68  285.68 320  284 320  " fill-rule="nonzero" fill="#797979" stroke="none" />
</svg>