<?xml version="1.0" encoding="utf-8"?>
<svg version="1.1" xmlns:xlink="http://www.w3.org/1999/xlink" width="200px" height="30px" xmlns="http://www.w3.org/2000/svg">
  <g transform="matrix(1 0 0 1 -10 -10 )">
    <path d="M 10.5 20  A 9.5 9.5 0 0 1 20 10.5 L 200 10.5  A 9.5 9.5 0 0 1 209.5 20 L 209.5 30  A 9.5 9.5 0 0 1 200 39.5 L 20 39.5  A 9.5 9.5 0 0 1 10.5 30 L 10.5 20  Z " fill-rule="nonzero" fill="#ffffff" stroke="none" fill-opacity="0" />
    <path d="M 10.5 20  A 9.5 9.5 0 0 1 20 10.5 L 200 10.5  A 9.5 9.5 0 0 1 209.5 20 L 209.5 30  A 9.5 9.5 0 0 1 200 39.5 L 20 39.5  A 9.5 9.5 0 0 1 10.5 30 L 10.5 20  Z " stroke-width="1" stroke="#e4e4e4" fill="none" />
  </g>
</svg>