<?xml version="1.0" encoding="utf-8"?>
<svg version="1.1" xmlns:xlink="http://www.w3.org/1999/xlink" width="380px" height="50px" xmlns="http://www.w3.org/2000/svg">
  <g transform="matrix(1 0 0 1 -60 -287 )">
    <path d="M 60.5 290  A 2.5 2.5 0 0 1 63 287.5 L 437 287.5  A 2.5 2.5 0 0 1 439.5 290 L 439.5 334  A 2.5 2.5 0 0 1 437 336.5 L 63 336.5  A 2.5 2.5 0 0 1 60.5 334 L 60.5 290  Z " fill-rule="nonzero" fill="#ffffff" stroke="none" />
    <path d="M 60.5 290  A 2.5 2.5 0 0 1 63 287.5 L 437 287.5  A 2.5 2.5 0 0 1 439.5 290 L 439.5 334  A 2.5 2.5 0 0 1 437 336.5 L 63 336.5  A 2.5 2.5 0 0 1 60.5 334 L 60.5 290  Z " stroke-width="1" stroke="#0079fe" fill="none" />
  </g>
</svg>