<?xml version="1.0" encoding="utf-8"?>
<svg version="1.1" xmlns:xlink="http://www.w3.org/1999/xlink" width="209px" height="81px" xmlns="http://www.w3.org/2000/svg">
  <g transform="matrix(1 0 0 1 -548 -592 )">
    <path d="M 548 655.559720463339  C 548 655.559720463339  548 597  548 597  C 548 594.238576250846  550.238576250846 592  553 592  C 553 592  752 592  752 592  C 754.761423749154 592  757 594.238576250846  757 597  C 757 597  757 655.559720463339  757 655.559720463339  C 757 658.321144212493  754.761423749154 660.559720463339  752 660.559720463339  C 752 660.559720463339  613.166576193271 660.559720463339  613.166576193271 660.559720463339  C 613.166576193271 660.559720463339  603.384795839468 672.130782207543  603.384795839468 672.130782207543  C 603.384795839468 672.130782207543  593.166576193271 660.559720463339  593.166576193271 660.559720463339  C 593.166576193271 660.559720463339  553 660.559720463339  553 660.559720463339  C 550.238576250846 660.559720463339  548 658.321144212493  548 655.559720463339  Z " fill-rule="nonzero" fill="#000000" stroke="none" fill-opacity="0.8" />
  </g>
</svg>