<?xml version="1.0" encoding="utf-8"?>
<svg version="1.1" xmlns:xlink="http://www.w3.org/1999/xlink" width="12px" height="12px" viewBox="258 202  12 12" xmlns="http://www.w3.org/2000/svg">
  <path d="M 264 202  C 267.36 202  270 204.64  270 208  C 270 211.36  267.36 214  264 214  C 260.64 214  258 211.36  258 208  C 258 204.64  260.64 202  264 202  Z " fill-rule="nonzero" fill="#ffffff" stroke="none" fill-opacity="0" />
  <path d="M 264 202.5  C 267.08 202.5  269.5 204.92  269.5 208  C 269.5 211.08  267.08 213.5  264 213.5  C 260.92 213.5  258.5 211.08  258.5 208  C 258.5 204.92  260.92 202.5  264 202.5  Z " stroke-width="1" stroke="#797979" fill="none" />
  <path d="M 264 211  C 262.32 211  261 209.68  261 208  C 261 206.32  262.32 205  264 205  C 265.68 205  267 206.32  267 208  C 267 209.68  265.68 211  264 211  " fill-rule="nonzero" fill="#797979" stroke="none" />
</svg>