<?xml version="1.0" encoding="utf-8"?>
<svg version="1.1" xmlns:xlink="http://www.w3.org/1999/xlink" width="297px" height="50px" xmlns="http://www.w3.org/2000/svg">
  <g transform="matrix(1 0 0 1 -344 -414 )">
    <path d="M 621.403495687711 414.5  C 621.403495687711 414.5  624.756792819096 414.782264068298  624.756792819096 414.782264068298  C 624.756792819096 414.782264068298  640.46773905083 439  640.46773905083 439  C 640.46773905083 439  624.756792819096 463.217735931702  624.756792819096 463.217735931702  C 624.756792819096 463.217735931702  621.403495687711 463.5  621.403495687711 463.5  C 621.403495687711 463.5  349 463.5  349 463.5  C 346.48 463.5  344.5 461.52  344.5 459  C 344.5 459  344.5 419  344.5 419  C 344.5 416.48  346.48 414.5  349 414.5  C 349 414.5  621.403495687711 414.5  621.403495687711 414.5  Z " fill-rule="nonzero" fill="#ffffff" stroke="none" />
    <path d="M 621.403495687711 414.5  C 621.403495687711 414.5  624.756792819096 414.782264068298  624.756792819096 414.782264068298  C 624.756792819096 414.782264068298  640.46773905083 439  640.46773905083 439  C 640.46773905083 439  624.756792819096 463.217735931702  624.756792819096 463.217735931702  C 624.756792819096 463.217735931702  621.403495687711 463.5  621.403495687711 463.5  C 621.403495687711 463.5  349 463.5  349 463.5  C 346.48 463.5  344.5 461.52  344.5 459  C 344.5 459  344.5 419  344.5 419  C 344.5 416.48  346.48 414.5  349 414.5  C 349 414.5  621.403495687711 414.5  621.403495687711 414.5  Z " stroke-width="1" stroke="#e4e4e4" fill="none" />
  </g>
</svg>