<?xml version="1.0" encoding="utf-8"?>
<svg version="1.1" xmlns:xlink="http://www.w3.org/1999/xlink" width="295px" height="50px" xmlns="http://www.w3.org/2000/svg">
  <g transform="matrix(1 0 0 1 -618 -414 )">
    <path d="M 893.39927277535 414.5  C 893.39927277535 414.5  896.756599659973 414.78451922751  896.756599659973 414.78451922751  C 896.756599659973 414.78451922751  912.467537013396 439  912.467537013396 439  C 912.467537013396 439  896.756599659973 463.21548077249  896.756599659973 463.21548077249  C 896.756599659973 463.21548077249  893.39927277535 463.5  893.39927277535 463.5  C 893.39927277535 463.5  623 463.5  623 463.5  C 620.48 463.5  618.5 461.52  618.5 459  C 618.5 459  618.5 419  618.5 419  C 618.5 416.48  620.48 414.5  623 414.5  C 623 414.5  893.39927277535 414.5  893.39927277535 414.5  Z " fill-rule="nonzero" fill="#ffffff" stroke="none" />
    <path d="M 893.39927277535 414.5  C 893.39927277535 414.5  896.756599659973 414.78451922751  896.756599659973 414.78451922751  C 896.756599659973 414.78451922751  912.467537013396 439  912.467537013396 439  C 912.467537013396 439  896.756599659973 463.21548077249  896.756599659973 463.21548077249  C 896.756599659973 463.21548077249  893.39927277535 463.5  893.39927277535 463.5  C 893.39927277535 463.5  623 463.5  623 463.5  C 620.48 463.5  618.5 461.52  618.5 459  C 618.5 459  618.5 419  618.5 419  C 618.5 416.48  620.48 414.5  623 414.5  C 623 414.5  893.39927277535 414.5  893.39927277535 414.5  Z " stroke-width="1" stroke="#e4e4e4" fill="none" />
  </g>
</svg>