<?xml version="1.0" encoding="utf-8"?>
<svg version="1.1" xmlns:xlink="http://www.w3.org/1999/xlink" width="297px" height="50px" xmlns="http://www.w3.org/2000/svg">
  <g transform="matrix(1 0 0 1 -344 -484 )">
    <path d="M 621.403495687711 484.5  C 621.403495687711 484.5  624.756792819096 484.782264068298  624.756792819096 484.782264068298  C 624.756792819096 484.782264068298  640.46773905083 509  640.46773905083 509  C 640.46773905083 509  624.756792819096 533.217735931702  624.756792819096 533.217735931702  C 624.756792819096 533.217735931702  621.403495687711 533.5  621.403495687711 533.5  C 621.403495687711 533.5  349 533.5  349 533.5  C 346.48 533.5  344.5 531.52  344.5 529  C 344.5 529  344.5 489  344.5 489  C 344.5 486.48  346.48 484.5  349 484.5  C 349 484.5  621.403495687711 484.5  621.403495687711 484.5  Z " fill-rule="nonzero" fill="#4bc1d0" stroke="none" />
    <path d="M 621.403495687711 484.5  C 621.403495687711 484.5  624.756792819096 484.782264068298  624.756792819096 484.782264068298  C 624.756792819096 484.782264068298  640.46773905083 509  640.46773905083 509  C 640.46773905083 509  624.756792819096 533.217735931702  624.756792819096 533.217735931702  C 624.756792819096 533.217735931702  621.403495687711 533.5  621.403495687711 533.5  C 621.403495687711 533.5  349 533.5  349 533.5  C 346.48 533.5  344.5 531.52  344.5 529  C 344.5 529  344.5 489  344.5 489  C 344.5 486.48  346.48 484.5  349 484.5  C 349 484.5  621.403495687711 484.5  621.403495687711 484.5  Z " stroke-width="1" stroke="#e4e4e4" fill="none" />
  </g>
</svg>