<?xml version="1.0" encoding="utf-8"?>
<svg version="1.1" xmlns:xlink="http://www.w3.org/1999/xlink" width="295px" height="50px" xmlns="http://www.w3.org/2000/svg">
  <g transform="matrix(1 0 0 1 -70 -414 )">
    <path d="M 345.39927277535 414.5  C 345.39927277535 414.5  348.756599659973 414.78451922751  348.756599659973 414.78451922751  C 348.756599659973 414.78451922751  364.467537013396 439  364.467537013396 439  C 364.467537013396 439  348.756599659973 463.21548077249  348.756599659973 463.21548077249  C 348.756599659973 463.21548077249  345.399272775351 463.5  345.399272775351 463.5  C 345.399272775351 463.5  75 463.5  75 463.5  C 72.48 463.5  70.5 461.52  70.5 459  C 70.5 459  70.5 419  70.5 419  C 70.5 416.48  72.48 414.5  75 414.5  C 75 414.5  345.39927277535 414.5  345.39927277535 414.5  Z " fill-rule="nonzero" fill="#4bc1d0" stroke="none" />
    <path d="M 345.39927277535 414.5  C 345.39927277535 414.5  348.756599659973 414.78451922751  348.756599659973 414.78451922751  C 348.756599659973 414.78451922751  364.467537013396 439  364.467537013396 439  C 364.467537013396 439  348.756599659973 463.21548077249  348.756599659973 463.21548077249  C 348.756599659973 463.21548077249  345.399272775351 463.5  345.399272775351 463.5  C 345.399272775351 463.5  75 463.5  75 463.5  C 72.48 463.5  70.5 461.52  70.5 459  C 70.5 459  70.5 419  70.5 419  C 70.5 416.48  72.48 414.5  75 414.5  C 75 414.5  345.39927277535 414.5  345.39927277535 414.5  Z " stroke-width="1" stroke="#e4e4e4" fill="none" />
  </g>
</svg>