<?xml version="1.0" encoding="utf-8"?>
<svg version="1.1" xmlns:xlink="http://www.w3.org/1999/xlink" width="10px" height="10px" xmlns="http://www.w3.org/2000/svg">
  <g transform="matrix(1 0 0 1 -61 -4774 )">
    <path d="M 66 4775  C 68.24 4775  70 4776.76  70 4779  C 70 4781.24  68.24 4783  66 4783  C 63.76 4783  62 4781.24  62 4779  C 62 4776.76  63.76 4775  66 4775  Z " fill-rule="nonzero" fill="#ffffff" stroke="none" />
    <path d="M 66 4775  C 68.24 4775  70 4776.76  70 4779  C 70 4781.24  68.24 4783  66 4783  C 63.76 4783  62 4781.24  62 4779  C 62 4776.76  63.76 4775  66 4775  Z " stroke-width="2" stroke="#0079fe" fill="none" />
  </g>
</svg>