<?xml version="1.0" encoding="utf-8"?>
<svg version="1.1" xmlns:xlink="http://www.w3.org/1999/xlink" width="12px" height="12px" viewBox="332 310  12 12" xmlns="http://www.w3.org/2000/svg">
  <path d="M 338 310  C 341.36 310  344 312.64  344 316  C 344 319.36  341.36 322  338 322  C 334.64 322  332 319.36  332 316  C 332 312.64  334.64 310  338 310  Z " fill-rule="nonzero" fill="#ffffff" stroke="none" fill-opacity="0" />
  <path d="M 338 310.5  C 341.08 310.5  343.5 312.92  343.5 316  C 343.5 319.08  341.08 321.5  338 321.5  C 334.92 321.5  332.5 319.08  332.5 316  C 332.5 312.92  334.92 310.5  338 310.5  Z " stroke-width="1" stroke="#797979" fill="none" />
  <path d="M 338 319  C 336.32 319  335 317.68  335 316  C 335 314.32  336.32 313  338 313  C 339.68 313  341 314.32  341 316  C 341 317.68  339.68 319  338 319  " fill-rule="nonzero" fill="#797979" stroke="none" />
</svg>