<?xml version="1.0" encoding="utf-8"?>
<svg version="1.1" xmlns:xlink="http://www.w3.org/1999/xlink" width="12px" height="12px" viewBox="278 597  12 12" xmlns="http://www.w3.org/2000/svg">
  <path d="M 284 597  C 287.36 597  290 599.64  290 603  C 290 606.36  287.36 609  284 609  C 280.64 609  278 606.36  278 603  C 278 599.64  280.64 597  284 597  Z " fill-rule="nonzero" fill="#ffffff" stroke="none" fill-opacity="0" />
  <path d="M 284 597.5  C 287.08 597.5  289.5 599.92  289.5 603  C 289.5 606.08  287.08 608.5  284 608.5  C 280.92 608.5  278.5 606.08  278.5 603  C 278.5 599.92  280.92 597.5  284 597.5  Z " stroke-width="1" stroke="#797979" fill="none" />
  <path d="M 284 606  C 282.32 606  281 604.68  281 603  C 281 601.32  282.32 600  284 600  C 285.68 600  287 601.32  287 603  C 287 604.68  285.68 606  284 606  " fill-rule="nonzero" fill="#797979" stroke="none" />
</svg>