<?xml version="1.0" encoding="utf-8"?>
<svg version="1.1" xmlns:xlink="http://www.w3.org/1999/xlink" width="12px" height="12px" viewBox="352 631  12 12" xmlns="http://www.w3.org/2000/svg">
  <path d="M 358 631  C 361.36 631  364 633.64  364 637  C 364 640.36  361.36 643  358 643  C 354.64 643  352 640.36  352 637  C 352 633.64  354.64 631  358 631  Z " fill-rule="nonzero" fill="#ffffff" stroke="none" fill-opacity="0" />
  <path d="M 358 631.5  C 361.08 631.5  363.5 633.92  363.5 637  C 363.5 640.08  361.08 642.5  358 642.5  C 354.92 642.5  352.5 640.08  352.5 637  C 352.5 633.92  354.92 631.5  358 631.5  Z " stroke-width="1" stroke="#797979" fill="none" />
  <path d="M 358 640  C 356.32 640  355 638.68  355 637  C 355 635.32  356.32 634  358 634  C 359.68 634  361 635.32  361 637  C 361 638.68  359.68 640  358 640  " fill-rule="nonzero" fill="#797979" stroke="none" />
</svg>