<?xml version="1.0" encoding="utf-8"?>
<svg version="1.1" xmlns:xlink="http://www.w3.org/1999/xlink" width="12px" height="12px" viewBox="278 566  12 12" xmlns="http://www.w3.org/2000/svg">
  <path d="M 284 566  C 287.36 566  290 568.64  290 572  C 290 575.36  287.36 578  284 578  C 280.64 578  278 575.36  278 572  C 278 568.64  280.64 566  284 566  Z " fill-rule="nonzero" fill="#ffffff" stroke="none" fill-opacity="0" />
  <path d="M 284 566.5  C 287.08 566.5  289.5 568.92  289.5 572  C 289.5 575.08  287.08 577.5  284 577.5  C 280.92 577.5  278.5 575.08  278.5 572  C 278.5 568.92  280.92 566.5  284 566.5  Z " stroke-width="1" stroke="#797979" fill="none" />
  <path d="M 284 575  C 282.32 575  281 573.68  281 572  C 281 570.32  282.32 569  284 569  C 285.68 569  287 570.32  287 572  C 287 573.68  285.68 575  284 575  " fill-rule="nonzero" fill="#797979" stroke="none" />
</svg>