<?xml version="1.0" encoding="utf-8"?>
<svg version="1.1" xmlns:xlink="http://www.w3.org/1999/xlink" width="12px" height="12px" viewBox="635 201  12 12" xmlns="http://www.w3.org/2000/svg">
  <path d="M 641 201  C 644.36 201  647 203.64  647 207  C 647 210.36  644.36 213  641 213  C 637.64 213  635 210.36  635 207  C 635 203.64  637.64 201  641 201  Z " fill-rule="nonzero" fill="#ffffff" stroke="none" fill-opacity="0" />
  <path d="M 641 201.5  C 644.08 201.5  646.5 203.92  646.5 207  C 646.5 210.08  644.08 212.5  641 212.5  C 637.92 212.5  635.5 210.08  635.5 207  C 635.5 203.92  637.92 201.5  641 201.5  Z " stroke-width="1" stroke="#797979" fill="none" />
  <path d="M 641 210  C 639.32 210  638 208.68  638 207  C 638 205.32  639.32 204  641 204  C 642.68 204  644 205.32  644 207  C 644 208.68  642.68 210  641 210  " fill-rule="nonzero" fill="#797979" stroke="none" />
</svg>