<?xml version="1.0" encoding="utf-8"?>
<svg version="1.1" xmlns:xlink="http://www.w3.org/1999/xlink" width="12px" height="12px" viewBox="530 379  12 12" xmlns="http://www.w3.org/2000/svg">
  <path d="M 536 379  C 539.36 379  542 381.64  542 385  C 542 388.36  539.36 391  536 391  C 532.64 391  530 388.36  530 385  C 530 381.64  532.64 379  536 379  Z " fill-rule="nonzero" fill="#ffffff" stroke="none" fill-opacity="0" />
  <path d="M 536 379.5  C 539.08 379.5  541.5 381.92  541.5 385  C 541.5 388.08  539.08 390.5  536 390.5  C 532.92 390.5  530.5 388.08  530.5 385  C 530.5 381.92  532.92 379.5  536 379.5  Z " stroke-width="1" stroke="#797979" fill="none" />
  <path d="M 536 388  C 534.32 388  533 386.68  533 385  C 533 383.32  534.32 382  536 382  C 537.68 382  539 383.32  539 385  C 539 386.68  537.68 388  536 388  " fill-rule="nonzero" fill="#797979" stroke="none" />
</svg>