<?xml version="1.0" encoding="utf-8"?>
<svg version="1.1" xmlns:xlink="http://www.w3.org/1999/xlink" width="12px" height="12px" viewBox="258 530  12 12" xmlns="http://www.w3.org/2000/svg">
  <path d="M 264 530  C 267.36 530  270 532.64  270 536  C 270 539.36  267.36 542  264 542  C 260.64 542  258 539.36  258 536  C 258 532.64  260.64 530  264 530  Z " fill-rule="nonzero" fill="#ffffff" stroke="none" fill-opacity="0" />
  <path d="M 264 530.5  C 267.08 530.5  269.5 532.92  269.5 536  C 269.5 539.08  267.08 541.5  264 541.5  C 260.92 541.5  258.5 539.08  258.5 536  C 258.5 532.92  260.92 530.5  264 530.5  Z " stroke-width="1" stroke="#797979" fill="none" />
  <path d="M 264 539  C 262.32 539  261 537.68  261 536  C 261 534.32  262.32 533  264 533  C 265.68 533  267 534.32  267 536  C 267 537.68  265.68 539  264 539  " fill-rule="nonzero" fill="#797979" stroke="none" />
</svg>