<?xml version="1.0" encoding="utf-8"?>
<svg version="1.1" xmlns:xlink="http://www.w3.org/1999/xlink" width="12px" height="12px" viewBox="465 238  12 12" xmlns="http://www.w3.org/2000/svg">
  <path d="M 471 238  C 474.36 238  477 240.64  477 244  C 477 247.36  474.36 250  471 250  C 467.64 250  465 247.36  465 244  C 465 240.64  467.64 238  471 238  Z " fill-rule="nonzero" fill="#ffffff" stroke="none" fill-opacity="0" />
  <path d="M 471 238.5  C 474.08 238.5  476.5 240.92  476.5 244  C 476.5 247.08  474.08 249.5  471 249.5  C 467.92 249.5  465.5 247.08  465.5 244  C 465.5 240.92  467.92 238.5  471 238.5  Z " stroke-width="1" stroke="#797979" fill="none" />
  <path d="M 471 247  C 469.32 247  468 245.68  468 244  C 468 242.32  469.32 241  471 241  C 472.68 241  474 242.32  474 244  C 474 245.68  472.68 247  471 247  " fill-rule="nonzero" fill="#797979" stroke="none" />
</svg>