<?xml version="1.0" encoding="utf-8"?>
<svg version="1.1" xmlns:xlink="http://www.w3.org/1999/xlink" width="12px" height="12px" viewBox="258 237  12 12" xmlns="http://www.w3.org/2000/svg">
  <path d="M 264 237  C 267.36 237  270 239.64  270 243  C 270 246.36  267.36 249  264 249  C 260.64 249  258 246.36  258 243  C 258 239.64  260.64 237  264 237  Z " fill-rule="nonzero" fill="#ffffff" stroke="none" fill-opacity="0" />
  <path d="M 264 237.5  C 267.08 237.5  269.5 239.92  269.5 243  C 269.5 246.08  267.08 248.5  264 248.5  C 260.92 248.5  258.5 246.08  258.5 243  C 258.5 239.92  260.92 237.5  264 237.5  Z " stroke-width="1" stroke="#797979" fill="none" />
  <path d="M 264 246  C 262.32 246  261 244.68  261 243  C 261 241.32  262.32 240  264 240  C 265.68 240  267 241.32  267 243  C 267 244.68  265.68 246  264 246  " fill-rule="nonzero" fill="#797979" stroke="none" />
</svg>