<?xml version="1.0" encoding="utf-8"?>
<svg version="1.1" xmlns:xlink="http://www.w3.org/1999/xlink" width="150px" height="150px" xmlns="http://www.w3.org/2000/svg">
  <g transform="matrix(1 0 0 1 -120 -856 )">
    <path d="M 195 856  C 237 856  270 889  270 931  C 270 973  237 1006  195 1006  C 153 1006  120 973  120 931  C 120 889  153 856  195 856  Z " fill-rule="nonzero" fill="#ffffff" stroke="none" />
    <path d="M 195 856.5  C 236.72 856.5  269.5 889.28  269.5 931  C 269.5 972.72  236.72 1005.5  195 1005.5  C 153.28 1005.5  120.5 972.72  120.5 931  C 120.5 889.28  153.28 856.5  195 856.5  Z " stroke-width="1" stroke="#ffffff" fill="none" />
  </g>
</svg>