<?xml version="1.0" standalone="no"?><!DOCTYPE svg PUBLIC "-//W3C//DTD SVG 1.1//EN" "http://www.w3.org/Graphics/SVG/1.1/DTD/svg11.dtd"><svg t="1557389655598" class="icon" style="" viewBox="0 0 1024 1024" version="1.1" xmlns="http://www.w3.org/2000/svg" p-id="13057" xmlns:xlink="http://www.w3.org/1999/xlink" width="48" height="48"><defs><style type="text/css"></style></defs><path d="M85.333333 85.546667A85.525333 85.525333 0 0 1 170.666667 0h682.666666c47.146667 0 85.333333 38.272 85.333334 85.546667V1024l-160.64-106.666667-135.125334 106.666667-129.813333-106.666667-132.458667 106.666667-138.624-106.666667L85.333333 1024V85.546667z m85.333334 63.765333V879.36l92.672-79.658667 117.290666 91.690667 132.458667-91.690667 129.813333 91.690667 113.792-91.690667L853.333333 879.36V149.333333A64 64 0 0 0 789.418667 85.333333H234.581333A63.850667 63.850667 0 0 0 170.666667 149.312zM256 256c0-23.573333 19.136-42.666667 42.773333-42.666667h426.453334c23.616 0 42.773333 18.944 42.773333 42.666667 0 23.573333-19.136 42.666667-42.773333 42.666667h-426.453334A42.624 42.624 0 0 1 256 256z m0 192c0-23.573333 19.136-42.666667 42.773333-42.666667h426.453334c23.616 0 42.773333 18.944 42.773333 42.666667 0 23.573333-19.136 42.666667-42.773333 42.666667h-426.453334A42.624 42.624 0 0 1 256 448z m0 192c0-23.573333 19.136-42.666667 42.773333-42.666667h426.453334c23.616 0 42.773333 18.944 42.773333 42.666667 0 23.573333-19.136 42.666667-42.773333 42.666667h-426.453334A42.624 42.624 0 0 1 256 640z" p-id="13058" fill="#999999"></path></svg>