<?xml version="1.0" standalone="no"?><!DOCTYPE svg PUBLIC "-//W3C//DTD SVG 1.1//EN" "http://www.w3.org/Graphics/SVG/1.1/DTD/svg11.dtd"><svg t="1557389560411" class="icon" style="" viewBox="0 0 1024 1024" version="1.1" xmlns="http://www.w3.org/2000/svg" p-id="11517" xmlns:xlink="http://www.w3.org/1999/xlink" width="48" height="48"><defs><style type="text/css"></style></defs><path d="M128 645.12l138.24-163.84H179.2c12.8-194.56 174.08-348.16 368.64-348.16 202.24 0 368.64 168.96 368.64 376.32s-166.4 376.32-368.64 376.32c-74.24 0-145.92-23.04-207.36-66.56-23.04-17.92-58.88-10.24-74.24 12.8-17.92 23.04-10.24 58.88 12.8 74.24 79.36 56.32 171.52 84.48 268.8 84.48 261.12 0 476.16-217.6 476.16-481.28C1024 243.2 811.52 28.16 547.84 28.16c-248.32 0-455.68 212.48-478.72 455.68H0l128 161.28zM696.32 307.2c7.68-17.92 2.56-33.28-17.92-46.08-20.48-10.24-35.84-7.68-48.64 12.8l-97.28 153.6-99.84-153.6c-12.8-17.92-28.16-23.04-46.08-15.36s-25.6 25.6-17.92 48.64l99.84 151.04h-81.92c-7.68 7.68-12.8 15.36-12.8 25.6s5.12 20.48 12.8 25.6h107.52v43.52h-107.52c-7.68 7.68-12.8 15.36-12.8 25.6s5.12 20.48 12.8 25.6h107.52v110.08c-2.56 30.72 10.24 48.64 38.4 48.64s43.52-15.36 40.96-48.64v-110.08h107.52c10.24-5.12 15.36-15.36 15.36-25.6 0-12.8-5.12-20.48-15.36-25.6h-107.52v-43.52h104.96c10.24-7.68 15.36-15.36 15.36-25.6s-5.12-20.48-15.36-25.6h-81.92l99.84-151.04z" fill="#999999" p-id="11518"></path></svg>