<?xml version="1.0" encoding="utf-8"?>
<svg version="1.1" xmlns:xlink="http://www.w3.org/1999/xlink" width="158px" height="47px" xmlns="http://www.w3.org/2000/svg">
  <g transform="matrix(1 0 0 1 -428 -174 )">
    <path d="M 428 207.052640300486  C 428 207.052640300486  428 179  428 179  C 428 176.238576250846  430.238576250846 174  433 174  C 433 174  581 174  581 174  C 583.761423749154 174  586 176.238576250846  586 179  C 586 179  586 207.052640300486  586 207.052640300486  C 586 209.81406404964  583.761423749154 212.052640300486  581 212.052640300486  C 581 212.052640300486  515.567723004695 212.052640300486  515.567723004695 212.052640300486  C 515.567723004695 212.052640300486  505.042292644757 220.748329098542  505.042292644757 220.748329098542  C 505.042292644757 220.748329098542  495.567723004695 212.052640300486  495.567723004695 212.052640300486  C 495.567723004695 212.052640300486  433 212.052640300486  433 212.052640300486  C 430.238576250846 212.052640300486  428 209.81406404964  428 207.052640300486  Z " fill-rule="nonzero" fill="#000000" stroke="none" fill-opacity="0.8" />
  </g>
</svg>