<?xml version="1.0" encoding="utf-8"?>
<svg version="1.1" xmlns:xlink="http://www.w3.org/1999/xlink" width="12px" height="12px" viewBox="278 350  12 12" xmlns="http://www.w3.org/2000/svg">
  <path d="M 284 350  C 287.36 350  290 352.64  290 356  C 290 359.36  287.36 362  284 362  C 280.64 362  278 359.36  278 356  C 278 352.64  280.64 350  284 350  Z " fill-rule="nonzero" fill="#ffffff" stroke="none" fill-opacity="0" />
  <path d="M 284 350.5  C 287.08 350.5  289.5 352.92  289.5 356  C 289.5 359.08  287.08 361.5  284 361.5  C 280.92 361.5  278.5 359.08  278.5 356  C 278.5 352.92  280.92 350.5  284 350.5  Z " stroke-width="1" stroke="#797979" fill="none" />
  <path d="M 284 359  C 282.32 359  281 357.68  281 356  C 281 354.32  282.32 353  284 353  C 285.68 353  287 354.32  287 356  C 287 357.68  285.68 359  284 359  " fill-rule="nonzero" fill="#797979" stroke="none" />
</svg>