<?xml version="1.0" encoding="utf-8"?>
<svg version="1.1" xmlns:xlink="http://www.w3.org/1999/xlink" width="12px" height="12px" viewBox="352 350  12 12" xmlns="http://www.w3.org/2000/svg">
  <path d="M 358 350  C 361.36 350  364 352.64  364 356  C 364 359.36  361.36 362  358 362  C 354.64 362  352 359.36  352 356  C 352 352.64  354.64 350  358 350  Z " fill-rule="nonzero" fill="#ffffff" stroke="none" fill-opacity="0" />
  <path d="M 358 350.5  C 361.08 350.5  363.5 352.92  363.5 356  C 363.5 359.08  361.08 361.5  358 361.5  C 354.92 361.5  352.5 359.08  352.5 356  C 352.5 352.92  354.92 350.5  358 350.5  Z " stroke-width="1" stroke="#797979" fill="none" />
  <path d="M 358 359  C 356.32 359  355 357.68  355 356  C 355 354.32  356.32 353  358 353  C 359.68 353  361 354.32  361 356  C 361 357.68  359.68 359  358 359  " fill-rule="nonzero" fill="#797979" stroke="none" />
</svg>