<?xml version="1.0" encoding="utf-8"?>
<svg version="1.1" xmlns:xlink="http://www.w3.org/1999/xlink" width="12px" height="12px" viewBox="260 238  12 12" xmlns="http://www.w3.org/2000/svg">
  <path d="M 266 238  C 269.36 238  272 240.64  272 244  C 272 247.36  269.36 250  266 250  C 262.64 250  260 247.36  260 244  C 260 240.64  262.64 238  266 238  Z " fill-rule="nonzero" fill="#ffffff" stroke="none" fill-opacity="0" />
  <path d="M 266 238.5  C 269.08 238.5  271.5 240.92  271.5 244  C 271.5 247.08  269.08 249.5  266 249.5  C 262.92 249.5  260.5 247.08  260.5 244  C 260.5 240.92  262.92 238.5  266 238.5  Z " stroke-width="1" stroke="#797979" fill="none" />
  <path d="M 266 247  C 264.32 247  263 245.68  263 244  C 263 242.32  264.32 241  266 241  C 267.68 241  269 242.32  269 244  C 269 245.68  267.68 247  266 247  " fill-rule="nonzero" fill="#797979" stroke="none" />
</svg>