<?xml version="1.0" encoding="utf-8"?>
<svg version="1.1" xmlns:xlink="http://www.w3.org/1999/xlink" width="12px" height="12px" viewBox="855 322  12 12" xmlns="http://www.w3.org/2000/svg">
  <path d="M 861 322  C 864.36 322  867 324.64  867 328  C 867 331.36  864.36 334  861 334  C 857.64 334  855 331.36  855 328  C 855 324.64  857.64 322  861 322  Z " fill-rule="nonzero" fill="#ffffff" stroke="none" fill-opacity="0" />
  <path d="M 861 322.5  C 864.08 322.5  866.5 324.92  866.5 328  C 866.5 331.08  864.08 333.5  861 333.5  C 857.92 333.5  855.5 331.08  855.5 328  C 855.5 324.92  857.92 322.5  861 322.5  Z " stroke-width="1" stroke="#797979" fill="none" />
  <path d="M 861 331  C 859.32 331  858 329.68  858 328  C 858 326.32  859.32 325  861 325  C 862.68 325  864 326.32  864 328  C 864 329.68  862.68 331  861 331  " fill-rule="nonzero" fill="#797979" stroke="none" />
</svg>