<?xml version="1.0" encoding="utf-8"?>
<svg version="1.1" xmlns:xlink="http://www.w3.org/1999/xlink" width="12px" height="12px" viewBox="332 346  12 12" xmlns="http://www.w3.org/2000/svg">
  <path d="M 338 346  C 341.36 346  344 348.64  344 352  C 344 355.36  341.36 358  338 358  C 334.64 358  332 355.36  332 352  C 332 348.64  334.64 346  338 346  Z " fill-rule="nonzero" fill="#ffffff" stroke="none" fill-opacity="0" />
  <path d="M 338 346.5  C 341.08 346.5  343.5 348.92  343.5 352  C 343.5 355.08  341.08 357.5  338 357.5  C 334.92 357.5  332.5 355.08  332.5 352  C 332.5 348.92  334.92 346.5  338 346.5  Z " stroke-width="1" stroke="#797979" fill="none" />
  <path d="M 338 355  C 336.32 355  335 353.68  335 352  C 335 350.32  336.32 349  338 349  C 339.68 349  341 350.32  341 352  C 341 353.68  339.68 355  338 355  " fill-rule="nonzero" fill="#797979" stroke="none" />
</svg>