<?xml version="1.0" encoding="utf-8"?>
<svg version="1.1" xmlns:xlink="http://www.w3.org/1999/xlink" width="556px" height="150px" xmlns="http://www.w3.org/2000/svg">
  <g transform="matrix(1 0 0 1 -20 -70 )">
    <path d="M 21 75  A 4 4 0 0 1 25 71 L 571 71  A 4 4 0 0 1 575 75 L 575 215  A 4 4 0 0 1 571 219 L 25 219  A 4 4 0 0 1 21 215 L 21 75  Z " fill-rule="nonzero" fill="#ffffff" stroke="none" />
    <path d="M 20.5 75  A 4.5 4.5 0 0 1 25 70.5 L 571 70.5  A 4.5 4.5 0 0 1 575.5 75 L 575.5 215  A 4.5 4.5 0 0 1 571 219.5 L 25 219.5  A 4.5 4.5 0 0 1 20.5 215 L 20.5 75  Z " stroke-width="1" stroke-dasharray="9,4" stroke="#0079fe" fill="none" stroke-dashoffset="0.5" />
  </g>
</svg>